<svg xmlns="http://www.w3.org/2000/svg" xmlns:xlink="http://www.w3.org/1999/xlink" width="500" zoomAndPan="magnify" viewBox="0 0 375 374.999991" height="500" preserveAspectRatio="xMidYMid meet" version="1.0"><defs><clipPath id="d4c67b83e7"><path d="M 0 0.839844 L 375 0.839844 L 375 374.339844 L 0 374.339844 Z M 0 0.839844 " clip-rule="nonzero"/></clipPath></defs><g clip-path="url(#d4c67b83e7)"><path fill="#34693a" d="M 374.996094 188.503906 C 374.996094 117.332031 335.382812 55.226562 276.96875 23.667969 C 250.445312 9.230469 219.894531 0.839844 187.667969 0.839844 C 155.105469 0.839844 124.554688 9.230469 98.03125 23.667969 C 39.617188 55.226562 0.00390625 117.332031 0.00390625 188.503906 C 0.00390625 202.601562 1.347656 216.367188 4.367188 229.460938 C 20.484375 299.960938 75.875 355.351562 146.039062 371.128906 C 151.410156 372.472656 156.78125 373.480469 162.152344 374.152344 C 170.882812 351.996094 175.246094 317.082031 175.582031 269.074219 L 175.582031 254.636719 L 174.574219 254.636719 L 173.230469 254.300781 L 172.226562 253.964844 L 171.21875 253.632812 L 170.210938 253.632812 L 169.203125 253.296875 L 167.859375 252.625 L 166.855469 252.625 L 165.847656 251.953125 L 164.839844 251.617188 L 163.496094 251.28125 L 161.480469 250.609375 L 160.476562 249.9375 L 159.46875 249.601562 L 158.460938 248.929688 L 157.453125 248.59375 L 156.445312 247.921875 L 155.4375 247.589844 L 154.433594 246.917969 L 153.425781 246.246094 L 152.417969 245.910156 L 151.746094 244.902344 L 150.738281 244.566406 L 149.730469 243.894531 L 148.726562 242.886719 L 148.054688 242.214844 L 147.046875 241.546875 L 146.039062 240.875 L 145.03125 239.867188 L 144.023438 239.195312 L 143.355469 238.523438 L 142.347656 237.851562 L 141.675781 236.84375 L 141.003906 236.175781 L 139.996094 235.167969 L 139.324219 234.160156 L 138.316406 233.152344 L 137.648438 232.480469 L 136.304688 230.464844 L 135.296875 229.460938 L 134.625 228.453125 L 134.289062 227.445312 L 133.28125 226.4375 L 132.609375 225.429688 L 132.273438 224.425781 L 131.605469 223.082031 L 130.933594 222.074219 L 130.261719 220.730469 L 129.589844 219.722656 L 129.253906 218.71875 L 128.582031 217.375 L 128.246094 216.03125 L 127.574219 214.6875 L 127.238281 213.679688 L 126.566406 212.339844 L 126.234375 210.996094 L 125.5625 208.308594 L 125.226562 206.96875 L 124.554688 205.625 L 124.554688 204.28125 L 124.21875 202.9375 L 124.21875 201.929688 L 123.882812 201.257812 L 123.882812 200.925781 L 123.546875 200.253906 L 123.546875 197.230469 L 123.210938 196.558594 L 123.210938 195.21875 L 122.875 194.210938 L 122.875 191.523438 L 122.539062 190.515625 L 122.539062 189.175781 L 122.203125 188.503906 L 122.203125 187.496094 L 121.867188 186.824219 L 121.867188 183.800781 L 121.53125 182.796875 L 121.53125 181.453125 L 121.195312 180.78125 L 121.195312 178.765625 L 120.859375 178.09375 L 120.859375 174.738281 L 120.523438 174.066406 L 120.523438 172.054688 L 120.191406 171.382812 L 120.191406 170.375 L 119.855469 169.703125 L 119.855469 166.34375 L 119.519531 165.339844 L 119.519531 163.324219 L 119.183594 162.316406 L 119.183594 160.636719 L 118.847656 159.632812 L 118.847656 155.9375 L 118.511719 155.265625 L 118.511719 153.253906 L 118.175781 152.246094 L 118.175781 151.238281 L 117.839844 150.566406 L 118.847656 150.230469 L 125.898438 150.230469 L 126.566406 150.566406 L 129.253906 150.566406 L 129.925781 150.902344 L 130.597656 150.902344 L 131.605469 151.238281 L 132.273438 151.574219 L 132.945312 151.574219 L 134.960938 152.582031 L 135.632812 152.582031 L 136.304688 152.917969 L 137.3125 153.253906 L 137.980469 153.589844 L 139.996094 154.597656 L 140.667969 154.929688 L 141.003906 155.265625 L 142.011719 155.601562 L 143.019531 156.609375 L 144.023438 156.945312 L 144.359375 157.617188 L 145.703125 158.289062 L 146.039062 158.625 L 147.046875 159.296875 L 148.054688 160.304688 L 148.726562 160.972656 L 149.0625 161.308594 L 149.730469 161.980469 L 150.066406 162.316406 L 150.738281 163.324219 L 151.746094 164.332031 L 152.082031 165.003906 L 152.753906 165.339844 L 153.089844 166.34375 L 153.425781 167.015625 L 154.433594 168.023438 L 155.105469 169.367188 L 155.4375 170.039062 L 155.773438 171.046875 L 156.109375 171.71875 L 156.78125 172.386719 L 156.78125 173.058594 L 157.117188 174.066406 L 157.453125 174.738281 L 187.667969 142.511719 L 217.546875 174.738281 L 217.882812 174.066406 L 218.21875 173.058594 L 218.554688 172.386719 L 218.890625 171.71875 L 219.226562 171.046875 L 219.5625 170.039062 L 219.894531 169.367188 L 220.902344 167.351562 L 221.574219 167.015625 L 221.910156 166.34375 L 222.582031 165.339844 L 222.917969 165.003906 L 223.589844 163.660156 L 224.261719 163.324219 L 224.597656 162.316406 L 225.601562 161.980469 L 225.9375 161.308594 L 226.609375 160.972656 L 226.945312 160.304688 L 227.617188 159.632812 L 228.289062 159.296875 L 228.625 158.625 L 229.96875 157.953125 L 230.304688 157.617188 L 231.308594 156.945312 L 231.644531 156.609375 L 232.316406 156.273438 L 232.988281 155.601562 L 234.332031 154.929688 L 235.003906 154.597656 L 237.019531 153.589844 L 238.023438 153.253906 L 238.359375 152.917969 L 239.03125 152.582031 L 240.039062 152.582031 L 242.054688 151.574219 L 243.058594 151.574219 L 244.402344 150.902344 L 245.074219 150.902344 L 245.746094 150.566406 L 248.097656 150.566406 L 248.765625 150.230469 L 256.152344 150.230469 L 256.824219 150.566406 L 256.824219 151.238281 L 256.488281 152.246094 L 256.488281 155.9375 L 256.152344 156.945312 L 256.152344 158.960938 L 255.816406 159.632812 L 255.816406 161.644531 L 255.480469 162.316406 L 255.480469 166.34375 L 255.144531 167.015625 L 255.144531 168.695312 L 254.808594 169.703125 L 254.808594 170.375 L 254.476562 171.382812 L 254.476562 174.738281 L 254.140625 175.746094 L 254.140625 177.089844 L 253.804688 178.09375 L 253.804688 181.453125 L 253.46875 182.125 L 253.46875 183.800781 L 253.132812 184.808594 L 253.132812 185.480469 L 252.796875 186.152344 L 252.796875 189.84375 L 252.460938 190.515625 L 252.460938 191.523438 L 252.125 192.195312 L 252.125 193.539062 L 251.789062 194.210938 L 251.789062 197.230469 L 251.453125 197.902344 L 251.453125 199.246094 L 251.117188 200.253906 L 251.117188 200.925781 L 250.78125 201.257812 L 250.78125 202.9375 L 249.773438 206.96875 L 249.4375 208.308594 L 248.765625 210.996094 L 248.097656 212.339844 L 247.761719 213.679688 L 247.425781 214.6875 L 246.753906 216.03125 L 246.417969 217.375 L 245.746094 218.71875 L 245.074219 219.722656 L 244.738281 220.730469 L 244.066406 222.074219 L 243.394531 223.082031 L 243.058594 224.425781 L 242.054688 225.429688 L 241.71875 226.4375 L 241.046875 227.445312 L 240.039062 228.453125 L 239.367188 229.460938 L 238.695312 230.464844 L 238.023438 231.472656 L 237.019531 232.480469 L 236.347656 233.152344 L 234.332031 236.175781 L 233.324219 236.84375 L 231.644531 238.523438 L 230.640625 239.195312 L 228.289062 241.546875 L 227.28125 242.214844 L 226.273438 242.886719 L 225.601562 243.894531 L 224.597656 244.566406 L 223.589844 244.902344 L 222.582031 245.910156 L 221.574219 246.246094 L 220.566406 246.917969 L 219.5625 247.589844 L 218.554688 247.921875 L 217.546875 248.59375 L 216.539062 248.929688 L 215.53125 249.601562 L 214.523438 249.9375 L 213.519531 250.609375 L 212.175781 250.945312 L 209.152344 251.953125 L 208.144531 252.625 L 207.140625 252.625 L 206.132812 253.296875 L 204.789062 253.632812 L 203.78125 253.632812 L 202.4375 253.964844 L 201.433594 254.300781 L 200.425781 254.636719 L 199.417969 254.636719 L 199.417969 269.074219 C 199.753906 317.082031 204.117188 351.996094 212.847656 374.152344 C 218.21875 373.480469 223.589844 372.472656 228.625 371.128906 C 299.125 355.351562 354.515625 299.960938 370.296875 229.460938 C 373.316406 216.367188 374.996094 202.601562 374.996094 188.503906 Z M 374.996094 188.503906 " fill-opacity="1" fill-rule="evenodd"/></g></svg>